<svg width="9" height="18" viewBox="0 0 9 18" fill="none" xmlns="http://www.w3.org/2000/svg">
<path d="M8.2525 17.3375C8.4425 17.3375 8.6325 17.2675 8.7825 17.1175C9.0725 16.8275 9.0725 16.3475 8.7825 16.0575L2.2625 9.5375C1.7825 9.0575 1.7825 8.2775 2.2625 7.7975L8.7825 1.2775C9.0725 0.9875 9.0725 0.5075 8.7825 0.2175C8.4925 -0.0725 8.0125 -0.0725 7.7225 0.2175L1.2025 6.7375C0.6925 7.2475 0.4025 7.9375 0.4025 8.6675C0.4025 9.3975 0.6825 10.0875 1.2025 10.5975L7.7225 17.1175C7.8725 17.2575 8.0625 17.3375 8.2525 17.3375Z" fill="white"/>
</svg>
