<svg width="17" height="9" viewBox="0 0 17 9" fill="none" xmlns="http://www.w3.org/2000/svg">
<path id="Vector" d="M-3.42039e-08 0.782494C-2.551e-08 0.583599 0.0686359 0.384704 0.215717 0.227682C0.500072 -0.0758949 0.97073 -0.0758948 1.25508 0.227682L7.64816 7.05292C8.11882 7.55539 8.88363 7.55539 9.35429 7.05292L15.7474 0.227682C16.0317 -0.0758942 16.5024 -0.0758942 16.7867 0.227682C17.0711 0.531259 17.0711 1.03373 16.7867 1.33731L10.3937 8.16255C9.89358 8.69642 9.21701 9 8.50123 9C7.78544 9 7.10887 8.70689 6.60879 8.16255L0.215717 1.33731C0.0784416 1.18028 -4.28979e-08 0.981389 -3.42039e-08 0.782494Z" fill="white"/>
</svg>
