<svg width="9" height="17" viewBox="0 0 9 17" fill="none" xmlns="http://www.w3.org/2000/svg">
<path d="M0.782495 17C0.5836 17 0.384705 16.9314 0.227682 16.7843C-0.0758941 16.4999 -0.0758941 16.0293 0.227682 15.7449L7.05292 9.35184C7.55539 8.88118 7.55539 8.11637 7.05292 7.64571L0.227682 1.25263C-0.0758941 0.968277 -0.0758941 0.497621 0.227682 0.213266C0.531259 -0.0710887 1.03373 -0.0710887 1.33731 0.213266L8.16255 6.60634C8.69642 7.10642 9 7.78299 9 8.49877C9 9.21456 8.70689 9.89113 8.16255 10.3912L1.33731 16.7843C1.18028 16.9216 0.98139 17 0.782495 17Z" fill="#F2632A"/>
</svg>
