<svg width="328" height="100" viewBox="0 0 328 100" fill="none" xmlns="http://www.w3.org/2000/svg">
<g clip-path="url(#clip0_1_368)">
<path d="M45.3204 0C20.3992 0 0 20.3316 0 45.3452V96.6696H9.04691V45.3452C9.04691 25.363 25.2632 9.13777 45.236 9.13777C65.2088 9.13777 81.4251 25.363 81.4251 45.3452V96.6696H90.472V45.3452C90.6423 20.3316 70.3289 0 45.3204 0Z" fill="url(#paint0_linear_1_368)"/>
<path d="M63.6704 56.6178C60.8891 54.9386 57.7016 54.0528 54.4532 54.0563C49.6547 54.059 45.0536 55.9676 41.6609 59.3627C38.2681 62.7579 36.3613 67.3618 36.3594 72.1629V96.5837H45.4063V72.1629C45.4063 69.7622 46.3594 67.4598 48.0561 65.7623C49.7527 64.0647 52.0538 63.111 54.4532 63.111C56.8526 63.111 59.1537 64.0647 60.8503 65.7623C62.547 67.4598 63.5001 69.7622 63.5001 72.1629V96.5837H72.5528V60.2045C72.5528 55.0815 74.26 50.3837 77.1621 46.4592C77.0762 42.7007 76.5653 38.9436 75.2846 35.4429C68.8244 40.7352 64.6639 48.3254 63.6761 56.6207L63.6704 56.6178Z" fill="url(#paint1_linear_1_368)"/>
<path d="M95.1631 28.5229C94.3068 28.5341 93.4518 28.591 92.6016 28.6933C93.6242 31.598 94.3389 34.6022 94.7338 37.6564H95.2461C107.707 37.6564 117.865 47.8222 117.865 60.2875V96.6696H126.912V60.2904C126.826 42.6978 112.657 28.5229 95.1617 28.5229H95.1631Z" fill="url(#paint2_linear_1_368)"/>
<path d="M150.301 89.5808C151.581 89.5808 152.349 90.3497 152.605 91.1186H153.978C153.721 89.7526 152.356 88.3853 150.223 88.3853C147.917 88.3853 146.296 90.0075 146.296 92.5704V93.3379C146.296 95.9853 148.003 97.523 150.223 97.523C152.27 97.523 153.636 96.2344 153.978 94.5349H152.612C152.356 95.6459 151.503 96.3289 150.308 96.3289C148.772 96.3289 147.663 95.2178 147.663 93.2548V92.4859C147.663 90.5215 148.772 89.4978 150.308 89.5822L150.301 89.5808Z" fill="url(#paint3_linear_1_368)"/>
<path d="M158.154 90.9482C156.361 90.9482 155.166 92.0579 155.166 94.0223V94.5349C155.166 96.4134 156.361 97.609 158.154 97.609C159.947 97.609 160.8 96.7499 161.141 95.4742H159.946C159.689 96.0712 159.349 96.4979 158.238 96.4979C157.215 96.4979 156.531 95.9009 156.531 94.6194H161.312V94.0223C161.226 92.1424 159.946 90.9482 158.154 90.9482ZM156.447 93.5942C156.617 92.4846 157.215 91.972 158.154 91.972C159.177 91.972 159.775 92.4846 159.861 93.5942H156.447Z" fill="url(#paint4_linear_1_368)"/>
<path d="M166.005 90.9482C165.592 90.9513 165.183 91.0358 164.802 91.197C164.421 91.3581 164.076 91.5928 163.786 91.8875L163.615 90.9482H162.677V97.3527H163.872V93.5097C163.872 92.5705 164.554 91.972 165.663 91.972C166.602 91.972 167.2 92.5705 167.2 93.5942V97.3527H168.395V93.5942C168.565 91.8875 167.537 90.9482 166.005 90.9482Z" fill="url(#paint5_linear_1_368)"/>
<path d="M171.98 95.3884V92.0652H173.687V91.04H171.98V89.2402H170.785V91.0328H169.59V92.0652H170.785V95.4729C170.785 96.6684 171.467 97.3528 172.747 97.3528H173.857V96.3277H172.918C172.32 96.4136 171.98 96.0714 171.98 95.3884Z" fill="url(#paint6_linear_1_368)"/>
<path d="M176.248 91.8875L176.077 91.0284H175.139V97.4328H176.334V93.5942C176.334 92.6549 177.016 92.0579 178.296 92.0579H178.978V90.9468H178.296C177.437 90.9468 176.674 91.2875 176.248 91.886V91.8875Z" fill="url(#paint7_linear_1_368)"/>
<path d="M182.741 90.9482C180.948 90.9482 180.095 91.8073 180.095 92.8268H181.453C181.539 92.3142 181.883 91.9677 182.819 91.9677C183.754 91.9677 184.185 92.3972 184.185 93.0788V93.5083H182.82C180.685 93.5083 179.832 94.2757 179.832 95.6431C179.832 96.7528 180.6 97.5216 182.052 97.5216C182.495 97.5273 182.934 97.43 183.334 97.2375C183.733 97.045 184.083 96.7624 184.355 96.412L184.526 97.4357H185.46V93.0816C185.29 91.7157 184.437 90.9482 182.73 90.9482H182.741ZM184.106 94.7053C184.106 95.6446 183.248 96.4134 182.059 96.4134C181.461 96.4134 181.034 95.9839 181.034 95.4742C181.034 94.8757 181.463 94.3631 182.741 94.3631H184.106V94.7053Z" fill="url(#paint8_linear_1_368)"/>
<path d="M188.453 95.3882V88.4712H187.258V95.4741C187.258 96.6697 187.94 97.3527 189.221 97.3527H189.818V96.3275H189.389C188.706 96.4134 188.45 96.0712 188.45 95.3882H188.453Z" fill="url(#paint9_linear_1_368)"/>
<path d="M196.987 88.4712L193.572 97.4371H194.939L195.878 94.9615H199.719L200.657 97.4371H202.022L198.608 88.4712H196.987ZM196.218 93.8505L197.077 91.7157L197.759 89.8371L198.442 91.7157L199.21 93.8505H196.218Z" fill="url(#paint10_linear_1_368)"/>
<path d="M203.9 92.7407C203.9 92.2281 204.242 91.8816 205.188 91.8816C206.047 91.8816 206.297 92.2224 206.476 92.8194H207.755C207.585 91.6239 206.816 90.9409 205.195 90.9409C203.488 90.9409 202.634 91.7084 202.634 92.7335C202.634 95.2105 206.56 94.0995 206.56 95.6372C206.56 96.2343 206.218 96.5765 205.195 96.5765C204.256 96.5765 203.907 96.2343 203.83 95.4654H202.542C202.712 96.7454 203.481 97.6002 205.188 97.6002C207.065 97.6002 207.834 96.8313 207.834 95.7217C207.918 92.9884 203.907 94.098 203.907 92.7321L203.9 92.7407Z" fill="url(#paint11_linear_1_368)"/>
<path d="M209.358 89.2401C209.358 89.6696 209.7 90.0075 210.217 90.0075C210.646 90.0075 211.076 89.6667 211.076 89.2401C211.076 88.8134 210.735 88.4712 210.217 88.4712C209.788 88.4712 209.358 88.812 209.358 89.2401Z" fill="url(#paint12_linear_1_368)"/>
<path d="M210.729 91.0327H209.534V97.4372H210.729V91.0327Z" fill="url(#paint13_linear_1_368)"/>
<path d="M215.423 90.9482C213.63 90.9482 212.777 91.8073 212.777 92.8268H214.142C214.228 92.3142 214.571 91.9677 215.509 91.9677C216.446 91.9677 216.874 92.3972 216.874 93.0788V93.5083H215.511C213.376 93.5083 212.523 94.2757 212.523 95.6431C212.523 96.7528 213.292 97.5216 214.743 97.5216C215.187 97.5273 215.625 97.43 216.025 97.2375C216.425 97.045 216.775 96.7624 217.047 96.412L217.217 97.4357H218.156V93.0816C217.986 91.7157 217.047 90.9482 215.426 90.9482H215.423ZM216.703 94.7053C216.703 95.6446 215.845 96.4134 214.654 96.4134C214.057 96.4134 213.63 95.9839 213.63 95.4742C213.63 94.8757 214.059 94.3631 215.337 94.3631H216.703V94.7053Z" fill="url(#paint14_linear_1_368)"/>
<path d="M223.105 90.9482C222.691 90.9513 222.283 91.0358 221.902 91.197C221.521 91.3581 221.176 91.5928 220.885 91.8875L220.715 90.9482H219.776V97.3527H220.971V93.5097C220.971 92.5705 221.654 91.972 222.763 91.972C223.702 91.972 224.3 92.5705 224.3 93.5942V97.3527H225.495V93.5942C225.665 91.8875 224.636 90.9482 223.105 90.9482Z" fill="url(#paint15_linear_1_368)"/>
<path d="M230.957 97.4371H236.846V96.3275H232.238V93.3379H235.993V92.2282H232.238V89.5808H236.846V88.4712H230.957V97.4371Z" fill="url(#paint16_linear_1_368)"/>
<path d="M243.931 91.0327H242.564L240.857 93.3379L239.236 91.0327H237.87L240.174 94.1068L237.7 97.4372H239.065L240.857 94.9616L242.65 97.4372H244.101L241.625 94.1068L243.931 91.0327Z" fill="url(#paint17_linear_1_368)"/>
<path d="M248.454 90.9482C247.515 90.9482 246.747 91.289 246.234 91.972L246.064 91.0327H245.124V99.9987H246.32V96.7542C246.75 97.3527 247.429 97.6133 248.368 97.6133C249.905 97.6133 251.014 96.5022 251.014 94.5392V94.0266C251.184 91.9763 249.989 90.9525 248.454 90.9525V90.9482ZM249.905 94.449C249.905 95.8149 249.307 96.4134 248.198 96.4134C247.259 96.4134 246.491 95.729 246.491 94.449V93.9364C246.491 92.7409 247.259 92.0579 248.198 92.0579C249.307 92.0579 249.905 92.6549 249.905 94.0209V94.4504V94.449Z" fill="url(#paint18_linear_1_368)"/>
<path d="M255.367 90.9482C253.488 90.9482 252.293 92.0579 252.293 94.0223V94.5349C252.293 96.4134 253.488 97.609 255.367 97.609C257.246 97.609 258.442 96.5036 258.442 94.5349V94.0223C258.524 92.065 257.329 90.9482 255.367 90.9482ZM257.244 94.449C257.244 95.7376 256.562 96.4134 255.367 96.4134C254.256 96.4134 253.488 95.729 253.488 94.449V93.9364C253.488 92.6478 254.17 91.972 255.365 91.972C256.474 91.972 257.243 92.655 257.243 93.9364L257.244 94.449Z" fill="url(#paint19_linear_1_368)"/>
<path d="M269.449 93.8505C269.449 95.5586 268.511 96.3275 267.06 96.3275C265.608 96.3275 264.67 95.3882 264.67 93.8505V88.4712H263.382V93.8505C263.382 96.2416 264.747 97.523 267.052 97.523C269.27 97.523 270.722 96.1571 270.722 93.8505V88.4712H269.442V93.8505H269.449Z" fill="url(#paint20_linear_1_368)"/>
<path d="M272.266 92.0579H275.935L272.096 96.4134V97.4372H277.386V96.4134H273.547L277.386 92.0579V91.0327H272.266V92.0579Z" fill="url(#paint21_linear_1_368)"/>
<path d="M281.996 90.9482C281.057 90.9482 280.374 91.2045 279.948 91.8073V88.5571H278.753V97.5245H279.692L279.862 96.5853C280.291 97.2682 281.057 97.6104 282.081 97.6104C283.617 97.6104 284.727 96.4993 284.727 94.5363V94.0238C284.642 91.9734 283.617 90.9497 281.996 90.9497V90.9482ZM283.447 94.449C283.447 95.8149 282.85 96.4134 281.739 96.4134C280.801 96.4134 280.032 95.729 280.032 94.449V93.9364C280.032 92.7409 280.801 92.0579 281.739 92.0579C282.764 92.0579 283.447 92.6549 283.447 94.0209V94.4504V94.449Z" fill="url(#paint22_linear_1_368)"/>
<path d="M288.908 90.9482C287.117 90.9482 285.922 92.0579 285.922 94.0223V94.5349C285.922 96.4134 287.117 97.609 288.908 97.609C290.7 97.609 291.554 96.7499 291.896 95.4742H290.701C290.445 96.0712 290.103 96.4979 288.994 96.4979C287.97 96.4979 287.287 95.9009 287.287 94.6194H292.071V94.0223C291.901 92.1424 290.706 90.9482 288.913 90.9482H288.908ZM287.117 93.5942C287.287 92.4846 287.884 91.972 288.824 91.972C289.847 91.972 290.445 92.4846 290.53 93.5942H287.117Z" fill="url(#paint23_linear_1_368)"/>
<path d="M298.895 91.0327H297.359L294.713 94.2772V88.4712H293.519V97.4371H294.713V95.9008L295.737 94.6194L297.616 97.4371H299.151L296.507 93.8505L298.895 91.0327Z" fill="url(#paint24_linear_1_368)"/>
<path d="M301.627 91.0327H300.432V97.4372H301.627V91.0327Z" fill="url(#paint25_linear_1_368)"/>
<path d="M300.175 89.2401C300.175 89.6696 300.517 90.0075 301.033 90.0075C301.463 90.0075 301.892 89.6667 301.892 89.2401C301.892 88.8134 301.551 88.4712 301.033 88.4712C300.515 88.4712 300.175 88.812 300.175 89.2401Z" fill="url(#paint26_linear_1_368)"/>
<path d="M304.699 92.7407C304.699 92.2281 305.041 91.8816 305.987 91.8816C306.845 91.8816 307.096 92.2224 307.268 92.8194H308.547C308.377 91.6239 307.608 90.9409 305.987 90.9409C304.28 90.9409 303.425 91.7084 303.425 92.7335C303.425 95.2105 307.352 94.0995 307.352 95.6372C307.352 96.2343 307.01 96.5765 305.987 96.5765C305.048 96.5765 304.699 96.2343 304.62 95.4654H303.341C303.511 96.7454 304.28 97.6002 305.987 97.6002C307.864 97.6002 308.633 96.8313 308.633 95.7217C308.717 92.9884 304.706 94.098 304.706 92.7321L304.699 92.7407Z" fill="url(#paint27_linear_1_368)"/>
<path d="M311.954 95.3884V92.0652H313.661V91.04H311.954V89.2402H310.666V91.0328H309.471V92.0652H310.674V95.4729C310.674 96.6684 311.357 97.3528 312.638 97.3528H313.747V96.3277H312.808C312.211 96.4136 311.949 96.0714 311.949 95.3884H311.954Z" fill="url(#paint28_linear_1_368)"/>
<path d="M317.672 90.9482C315.879 90.9482 315.026 91.8073 315.026 92.8268H316.399C316.485 92.3142 316.828 91.9677 317.764 91.9677C318.7 91.9677 319.131 92.3972 319.131 93.0788V93.5083H317.764C315.63 93.5083 314.777 94.2757 314.777 95.6431C314.777 96.7528 315.546 97.5216 316.997 97.5216C317.44 97.5273 317.879 97.43 318.279 97.2375C318.679 97.045 319.029 96.7624 319.301 96.412L319.471 97.4357H320.406V93.0816C320.321 91.7157 319.382 90.9482 317.675 90.9482H317.672ZM319.118 94.7053C319.118 95.6446 318.259 96.4134 317.068 96.4134C316.472 96.4134 316.045 95.9839 316.045 95.4742C316.045 94.8757 316.475 94.3631 317.751 94.3631H319.118V94.7053Z" fill="url(#paint29_linear_1_368)"/>
<path d="M325.439 90.9482C325.026 90.9509 324.617 91.0353 324.236 91.1965C323.856 91.3577 323.511 91.5925 323.221 91.8875L323.049 90.9482H322.11V97.3527H323.305V93.5097C323.305 92.5705 323.988 91.972 325.098 91.972C326.037 91.972 326.634 92.5705 326.634 93.5942V97.3527H327.829V93.5942C328 91.8875 326.97 90.9482 325.439 90.9482Z" fill="url(#paint30_linear_1_368)"/>
<path d="M213.374 29.3765C208.766 29.3765 206.291 32.1943 206.291 32.1943C207.998 35.3542 206.973 38.351 205.608 41.6742L189.392 80.6994H198.264L201.422 72.2518H228.051L231.293 80.6994H241.454C241.454 80.6994 227.371 45.4313 224.298 37.4046C221.993 31.3409 217.898 29.3765 213.373 29.3765H213.374ZM203.901 65.4994L214.49 37.4046L225.415 65.4994H203.901Z" fill="url(#paint31_linear_1_368)"/>
<path d="M167.371 35.7809C175.905 35.7809 180.679 40.3069 183.417 44.1498C184.954 43.0402 187.172 40.6491 187.172 37.4046C187.172 33.2194 182.648 29.292 171.894 29.292C154.825 29.292 141.339 41.1616 141.339 56.4476C141.339 68.2327 149.703 81.3839 167.798 81.3839C179.491 81.3839 186.148 75.3202 186.148 75.3202L187.087 69.172C184.269 70.9646 178.723 73.6106 171.126 73.6106C157.044 73.6106 150.642 63.7054 150.642 53.4565C150.814 41.3306 159.775 35.7795 167.371 35.7795V35.7809Z" fill="url(#paint32_linear_1_368)"/>
<path d="M328 80.5288L313.575 62.7744L323.306 50.9033C325.952 47.7433 324.757 43.73 320.49 43.73C317.844 43.73 315.796 45.3536 315.796 45.3536C315.796 45.3536 316.393 48.3418 313.235 52.2707L309.139 57.1388L300.859 46.8914C299.238 45.0129 297.701 43.7314 295.055 43.7314C291.556 43.7314 289.679 46.3788 289.679 46.3788C289.679 46.3788 291.556 48.087 296.08 53.8929L303.591 63.5433L289.424 80.4514H299.155L308.203 69.3507L316.824 80.4514H328.004V80.5373L328 80.5288Z" fill="url(#paint33_linear_1_368)"/>
<path d="M268.255 36.465C276.79 36.465 281.483 38.9406 283.106 39.8799C284.215 38.7702 285.58 37.0621 285.58 34.9273C285.58 32.0236 283.362 30.231 279.606 30.231H246.234C247.685 32.4503 248.026 36.2087 248.026 39.1081L247.942 80.5245H283.617L284.642 73.8637H257.155V58.4174H276.359L277.382 51.6708H257.155V36.3791L268.251 36.465H268.255Z" fill="url(#paint34_linear_1_368)"/>
</g>
<defs>
<linearGradient id="paint0_linear_1_368" x1="9.29239" y1="262.16" x2="80.2726" y2="-158.48" gradientUnits="userSpaceOnUse">
<stop stop-color="#FFE5C2"/>
<stop offset="1" stop-color="#C49575"/>
</linearGradient>
<linearGradient id="paint1_linear_1_368" x1="37.2981" y1="203.198" x2="69.3067" y2="-62.8626" gradientUnits="userSpaceOnUse">
<stop stop-color="#FFE5C2"/>
<stop offset="1" stop-color="#C49575"/>
</linearGradient>
<linearGradient id="paint2_linear_1_368" x1="96.9046" y1="214.791" x2="123.824" y2="-81.7444" gradientUnits="userSpaceOnUse">
<stop stop-color="#FFE5C2"/>
<stop offset="1" stop-color="#C49575"/>
</linearGradient>
<linearGradient id="paint3_linear_1_368" x1="150.718" y1="118.989" x2="156.744" y2="79.2274" gradientUnits="userSpaceOnUse">
<stop stop-color="#FFE5C2"/>
<stop offset="1" stop-color="#C49575"/>
</linearGradient>
<linearGradient id="paint4_linear_1_368" x1="159.937" y1="115.008" x2="164.759" y2="86.023" gradientUnits="userSpaceOnUse">
<stop stop-color="#FFE5C2"/>
<stop offset="1" stop-color="#C49575"/>
</linearGradient>
<linearGradient id="paint5_linear_1_368" x1="167.953" y1="114.315" x2="172.454" y2="86.4456" gradientUnits="userSpaceOnUse">
<stop stop-color="#FFE5C2"/>
<stop offset="1" stop-color="#C49575"/>
</linearGradient>
<linearGradient id="paint6_linear_1_368" x1="175.259" y1="117.124" x2="178.608" y2="81.8232" gradientUnits="userSpaceOnUse">
<stop stop-color="#FFE5C2"/>
<stop offset="1" stop-color="#C49575"/>
</linearGradient>
<linearGradient id="paint7_linear_1_368" x1="180.763" y1="114.516" x2="183.776" y2="86.2741" gradientUnits="userSpaceOnUse">
<stop stop-color="#FFE5C2"/>
<stop offset="1" stop-color="#C49575"/>
</linearGradient>
<linearGradient id="paint8_linear_1_368" x1="186.627" y1="114.821" x2="191.046" y2="86.2086" gradientUnits="userSpaceOnUse">
<stop stop-color="#FFE5C2"/>
<stop offset="1" stop-color="#C49575"/>
</linearGradient>
<linearGradient id="paint9_linear_1_368" x1="193.883" y1="118.376" x2="195.892" y2="79.7294" gradientUnits="userSpaceOnUse">
<stop stop-color="#FFE5C2"/>
<stop offset="1" stop-color="#C49575"/>
</linearGradient>
<linearGradient id="paint10_linear_1_368" x1="202.307" y1="118.742" x2="208.936" y2="79.7257" gradientUnits="userSpaceOnUse">
<stop stop-color="#FFE5C2"/>
<stop offset="1" stop-color="#C49575"/>
</linearGradient>
<linearGradient id="paint11_linear_1_368" x1="210.714" y1="115.017" x2="214.867" y2="86.0324" gradientUnits="userSpaceOnUse">
<stop stop-color="#FFE5C2"/>
<stop offset="1" stop-color="#C49575"/>
</linearGradient>
<linearGradient id="paint12_linear_1_368" x1="217.484" y1="98.4552" x2="218.823" y2="91.7675" gradientUnits="userSpaceOnUse">
<stop stop-color="#FFE5C2"/>
<stop offset="1" stop-color="#C49575"/>
</linearGradient>
<linearGradient id="paint13_linear_1_368" x1="217.593" y1="114.408" x2="218.53" y2="86.5379" gradientUnits="userSpaceOnUse">
<stop stop-color="#FFE5C2"/>
<stop offset="1" stop-color="#C49575"/>
</linearGradient>
<linearGradient id="paint14_linear_1_368" x1="221.709" y1="114.821" x2="226.128" y2="86.2086" gradientUnits="userSpaceOnUse">
<stop stop-color="#FFE5C2"/>
<stop offset="1" stop-color="#C49575"/>
</linearGradient>
<linearGradient id="paint15_linear_1_368" x1="229.232" y1="114.315" x2="233.733" y2="86.4456" gradientUnits="userSpaceOnUse">
<stop stop-color="#FFE5C2"/>
<stop offset="1" stop-color="#C49575"/>
</linearGradient>
<linearGradient id="paint16_linear_1_368" x1="241.264" y1="118.607" x2="245.884" y2="79.5902" gradientUnits="userSpaceOnUse">
<stop stop-color="#FFE5C2"/>
<stop offset="1" stop-color="#C49575"/>
</linearGradient>
<linearGradient id="paint17_linear_1_368" x1="248.663" y1="114.424" x2="253.685" y2="86.5548" gradientUnits="userSpaceOnUse">
<stop stop-color="#FFE5C2"/>
<stop offset="1" stop-color="#C49575"/>
</linearGradient>
<linearGradient id="paint18_linear_1_368" x1="256.145" y1="121.459" x2="260.779" y2="82.0695" gradientUnits="userSpaceOnUse">
<stop stop-color="#FFE5C2"/>
<stop offset="1" stop-color="#C49575"/>
</linearGradient>
<linearGradient id="paint19_linear_1_368" x1="264.198" y1="115.011" x2="269.023" y2="86.0267" gradientUnits="userSpaceOnUse">
<stop stop-color="#FFE5C2"/>
<stop offset="1" stop-color="#C49575"/>
</linearGradient>
<linearGradient id="paint20_linear_1_368" x1="276.027" y1="118.802" x2="281.785" y2="79.4132" gradientUnits="userSpaceOnUse">
<stop stop-color="#FFE5C2"/>
<stop offset="1" stop-color="#C49575"/>
</linearGradient>
<linearGradient id="paint21_linear_1_368" x1="285.417" y1="114.422" x2="289.569" y2="86.5518" gradientUnits="userSpaceOnUse">
<stop stop-color="#FFE5C2"/>
<stop offset="1" stop-color="#C49575"/>
</linearGradient>
<linearGradient id="paint22_linear_1_368" x1="292.395" y1="118.911" x2="297.083" y2="79.5202" gradientUnits="userSpaceOnUse">
<stop stop-color="#FFE5C2"/>
<stop offset="1" stop-color="#C49575"/>
</linearGradient>
<linearGradient id="paint23_linear_1_368" x1="300.265" y1="115.008" x2="305.086" y2="86.023" gradientUnits="userSpaceOnUse">
<stop stop-color="#FFE5C2"/>
<stop offset="1" stop-color="#C49575"/>
</linearGradient>
<linearGradient id="paint24_linear_1_368" x1="308.368" y1="118.607" x2="312.788" y2="79.5902" gradientUnits="userSpaceOnUse">
<stop stop-color="#FFE5C2"/>
<stop offset="1" stop-color="#C49575"/>
</linearGradient>
<linearGradient id="paint25_linear_1_368" x1="315.146" y1="114.408" x2="316.083" y2="86.5379" gradientUnits="userSpaceOnUse">
<stop stop-color="#FFE5C2"/>
<stop offset="1" stop-color="#C49575"/>
</linearGradient>
<linearGradient id="paint26_linear_1_368" x1="314.942" y1="98.4549" x2="316.282" y2="91.7672" gradientUnits="userSpaceOnUse">
<stop stop-color="#FFE5C2"/>
<stop offset="1" stop-color="#C49575"/>
</linearGradient>
<linearGradient id="paint27_linear_1_368" x1="318.892" y1="115.017" x2="323.045" y2="86.0324" gradientUnits="userSpaceOnUse">
<stop stop-color="#FFE5C2"/>
<stop offset="1" stop-color="#C49575"/>
</linearGradient>
<linearGradient id="paint28_linear_1_368" x1="325.389" y1="117.124" x2="328.737" y2="81.8232" gradientUnits="userSpaceOnUse">
<stop stop-color="#FFE5C2"/>
<stop offset="1" stop-color="#C49575"/>
</linearGradient>
<linearGradient id="paint29_linear_1_368" x1="331.444" y1="114.821" x2="335.863" y2="86.2086" gradientUnits="userSpaceOnUse">
<stop stop-color="#FFE5C2"/>
<stop offset="1" stop-color="#C49575"/>
</linearGradient>
<linearGradient id="paint30_linear_1_368" x1="339.059" y1="114.315" x2="343.56" y2="86.4456" gradientUnits="userSpaceOnUse">
<stop stop-color="#FFE5C2"/>
<stop offset="1" stop-color="#C49575"/>
</linearGradient>
<linearGradient id="paint31_linear_1_368" x1="208.207" y1="170.966" x2="249.053" y2="-52.3586" gradientUnits="userSpaceOnUse">
<stop stop-color="#FFE5C2"/>
<stop offset="1" stop-color="#C49575"/>
</linearGradient>
<linearGradient id="paint32_linear_1_368" x1="151.913" y1="172.235" x2="187.871" y2="-54.4358" gradientUnits="userSpaceOnUse">
<stop stop-color="#FFE5C2"/>
<stop offset="1" stop-color="#C49575"/>
</linearGradient>
<linearGradient id="paint33_linear_1_368" x1="309.13" y1="146.169" x2="339.397" y2="-13.9853" gradientUnits="userSpaceOnUse">
<stop stop-color="#FFE5C2"/>
<stop offset="1" stop-color="#C49575"/>
</linearGradient>
<linearGradient id="paint34_linear_1_368" x1="261.514" y1="168.073" x2="292.384" y2="-50.7957" gradientUnits="userSpaceOnUse">
<stop stop-color="#FFE5C2"/>
<stop offset="1" stop-color="#C49575"/>
</linearGradient>
<clipPath id="clip0_1_368">
<rect width="328" height="100" fill="white"/>
</clipPath>
</defs>
</svg>
