<svg width="16" height="17" viewBox="0 0 16 17" fill="none" xmlns="http://www.w3.org/2000/svg">
<path fill-rule="evenodd" clip-rule="evenodd" d="M14 4.4375C14 3.91973 13.5877 3.5 13.0791 3.5H12.1582C11.6496 3.5 11.2373 3.91973 11.2373 4.4375V12.5625C11.2373 13.0803 11.6496 13.5 12.1582 13.5H13.0791C13.5877 13.5 14 13.0803 14 12.5625V4.4375ZM7.5817 5.5H8.50261C9.01122 5.5 9.42353 5.92981 9.42353 6.46V12.54C9.42353 13.0702 9.01122 13.5 8.50261 13.5H7.5817C7.07309 13.5 6.66078 13.0702 6.66078 12.54V6.46C6.66078 5.92981 7.07309 5.5 7.5817 5.5ZM3.84183 7.66666H2.92091C2.41231 7.66666 2 8.10194 2 8.63888V12.5278C2 13.0647 2.41231 13.5 2.92091 13.5H3.84183C4.35044 13.5 4.76274 13.0647 4.76274 12.5278V8.63888C4.76274 8.10194 4.35044 7.66666 3.84183 7.66666Z" fill="#474F61"/>
</svg>
