<svg width="16" height="17" viewBox="0 0 16 17" fill="none" xmlns="http://www.w3.org/2000/svg">
<path fill-rule="evenodd" clip-rule="evenodd" d="M8.00033 5.80045C9.74143 5.80053 11.4159 6.47368 12.6778 7.68076C12.7728 7.77395 12.9247 7.77278 13.0183 7.67813L13.9266 6.75576C13.974 6.70775 14.0004 6.64272 14 6.57507C13.9996 6.50741 13.9724 6.44269 13.9245 6.39525C10.6125 3.20158 5.38758 3.20158 2.07564 6.39525C2.02767 6.44266 2.00045 6.50735 2.00001 6.57501C1.99956 6.64267 2.02594 6.70772 2.07329 6.75576L2.98186 7.67813C3.07538 7.77292 3.22738 7.7741 3.32234 7.68076C4.58435 6.4736 6.25906 5.80045 8.00033 5.80045ZM7.99798 8.88137C8.94817 8.88131 9.86445 9.25489 10.5688 9.92953C10.664 10.0253 10.8141 10.0232 10.907 9.92485L11.8081 8.96172C11.8556 8.9112 11.8819 8.84267 11.8812 8.77145C11.8806 8.70024 11.8529 8.63229 11.8045 8.5828C9.65966 6.4724 6.33812 6.4724 4.19329 8.5828C4.14484 8.63229 4.1172 8.70027 4.11656 8.77151C4.11592 8.84275 4.14235 8.91128 4.1899 8.96172L5.0908 9.92485C5.18367 10.0232 5.33373 10.0253 5.429 9.92953C6.13286 9.25534 7.04842 8.88179 7.99798 8.88137ZM9.7652 10.9207C9.76655 10.9976 9.7406 11.0718 9.69349 11.1257L8.16972 12.9177C8.12505 12.9704 8.06415 13 8.00061 13C7.93707 13 7.87617 12.9704 7.8315 12.9177L6.30747 11.1257C6.26039 11.0718 6.23449 10.9976 6.23589 10.9207C6.23729 10.8438 6.26585 10.7709 6.31485 10.7194C7.28798 9.76021 8.71323 9.76021 9.68637 10.7194C9.73533 10.771 9.76385 10.8438 9.7652 10.9207Z" fill="#474F61"/>
</svg>
